<svg xmlns="http://www.w3.org/2000/svg" viewBox="0 0 578.3 481" style="enable-background:new 0 0 578.3 481" xml:space="preserve">
  <path d="M395 437 30 337 2 371l401 110zm-19-98L96 262l-28 33 317 86zm-20-96-198-54-28 33 235 64zm-19-95-117-32-28 32 154 43zM310 11l-65 76 85 23z" style="fill:#1976d2"/>
  <path d="M554 325 395 438l8 43 175-124zm-55-72-123 86 8 42 138-97zm-54-71-89 62 9 42 103-73zm-55-71-53 37 8 42 69-48zM311 10l-1 1 20 99 38-26z" style="fill:#1d5582"/>
  <path d="M393 427 29 328 0 361l402 110zm-18-98L95 252l-29 33 317 86zm-20-96-199-54-28 33 235 64zm-19-95-117-32-28 33 153 42z" style="fill:#fff"/>
  <path style="fill:#ec796b" d="m309 1-66 76 85 23z"/>
  <path d="M552 315 393 428l9 43 175-124zm-55-72-123 87 8 41 139-97zm-54-71-88 62 8 42 104-73zm-54-71-54 38 9 41 69-48z" style="fill:#b7b7b7"/>
  <path style="fill:#aa5b55" d="m309 0-1 1 20 99 38-26z"/>
</svg>