<svg xmlns="http://www.w3.org/2000/svg" viewBox="23 23 104 104">
  <defs>
    <linearGradient id="a" y2="100%">
      <stop offset="0" stop-color="#FF94B8"/>
      <stop offset="1" stop-color="#FF8C42"/>
    </linearGradient>
  </defs>
  <circle cx="75" cy="75" r="51" fill="none" stroke="url(#a)" stroke-width="2"/>
  <circle cx="75" cy="75" r="50" fill="#141456"/>
  <path fill="#FF5A00" d="M35.5 90H116l-13.8-15H49.3z"/>
  <path fill="#FF94B8" d="M53.9 70h43.7l-9.2-15H63.1z"/>
  <path fill="#fff" d="M66.55 50h18.4l-9.2-19z"/>
  <path fill="#E0E0E0" d="m75.8 119.404 1.972-6.1a3.981 3.981 0 0 1 2.628-2.588l6.132-1.884c.848-.26.852-1.456.012-1.728l-6.104-1.976a3.996 3.996 0 0 1-2.588-2.628l-1.88-6.132a.908.908 0 0 0-1.732-.008l-1.976 6.1a3.996 3.996 0 0 1-2.624 2.588l-6.132 1.88a.908.908 0 0 0-.012 1.732l6.104 1.976a4 4 0 0 1 2.584 2.628l1.884 6.128a.908.908 0 0 0 1.728.012z"/>
</svg>