<?xml version="1.0" encoding="utf-8"?>
<!-- Generator: Adobe Illustrator 28.3.0, SVG Export Plug-In . SVG Version: 6.00 Build 0)  -->
<svg version="1.1" id="Layer_1" xmlns="http://www.w3.org/2000/svg" xmlns:xlink="http://www.w3.org/1999/xlink" x="0px" y="0px"
	 viewBox="0 0 578.3 481" style="enable-background:new 0 0 578.3 481;" xml:space="preserve">
<style type="text/css">
	.st0{fill:#1976D2;}
	.st1{fill:#1D5582;}
	.st2{fill:#FFFFFF;}
	.st3{fill:#EC796B;}
	.st4{fill:#B7B7B7;}
	.st5{fill:#AA5B55;}
</style>
<g>
	<g>
		<polygon class="st0" points="394.7,437.1 30.4,337.4 1.6,371 403.4,481 		"/>
	</g>
	<g>
		<polygon class="st0" points="376.2,338.5 96.1,261.8 68.1,294.6 384.6,381.2 		"/>
	</g>
	<g>
		<polygon class="st0" points="356.2,243.1 157.7,188.8 129.7,221.5 364.7,285.8 		"/>
	</g>
	<g>
		<polygon class="st0" points="337.3,147.7 220.3,115.7 192.2,148.4 345.8,190.5 		"/>
	</g>
	<g>
		<polygon class="st0" points="310.2,10.7 245,86.8 329.8,110 		"/>
	</g>
</g>
<g>
	<g>
		<polygon class="st1" points="553.8,324.7 394.8,437.7 403.3,481 578.3,356.6 		"/>
	</g>
	<g>
		<polygon class="st1" points="498.6,252.5 375.8,339.4 384.1,381.3 522.4,283.5 		"/>
	</g>
	<g>
		<polygon class="st1" points="444.5,181.6 356.3,243.9 364.6,285.8 468.3,212.5 		"/>
	</g>
	<g>
		<polygon class="st1" points="390.3,110.6 336.9,148.4 345.2,190.3 414.1,141.5 		"/>
	</g>
	<g>
		<polygon class="st1" points="310.7,9.9 309.9,10.5 329.6,110.2 367.7,84 		"/>
	</g>
</g>
<g>
	<g>
		<polygon class="st2" points="393.1,427.2 28.8,327.5 0,361.1 401.8,471.1 		"/>
	</g>
	<g>
		<polygon class="st2" points="374.5,328.6 94.5,251.9 66.4,284.7 383,371.3 		"/>
	</g>
	<g>
		<polygon class="st2" points="354.6,233.2 156.1,178.9 128,211.6 363.1,275.9 		"/>
	</g>
	<g>
		<polygon class="st2" points="335.7,137.8 218.6,105.8 190.6,138.5 344.2,180.6 		"/>
	</g>
	<g>
		<polygon class="st3" points="308.5,0.8 243.4,76.9 328.2,100 		"/>
	</g>
</g>
<g>
	<g>
		<polygon class="st4" points="552.2,314.8 393.2,427.8 401.7,471.1 576.6,346.7 		"/>
	</g>
	<g>
		<polygon class="st4" points="497,242.6 374.2,329.5 382.4,371.4 520.8,273.5 		"/>
	</g>
	<g>
		<polygon class="st4" points="442.8,171.6 354.7,234 363,275.9 466.6,202.6 		"/>
	</g>
	<g>
		<polygon class="st4" points="388.7,100.7 335.2,138.5 343.5,180.4 412.5,131.6 		"/>
	</g>
	<g>
		<polygon class="st5" points="309,0 308.2,0.6 327.9,100.3 366.1,74.1 		"/>
	</g>
</g>
</svg>
